<svg width="1161" height="2150" viewBox="0 0 1161 2150" fill="none" xmlns="http://www.w3.org/2000/svg">
<path d="M744.008 2148.4C812.5 2002.86 1106.46 2171.09 1149.5 2076.13C1183.93 2000.17 1100.38 1984.43 1054.3 1986.06C1036.28 1986.06 906.661 2025.07 828.587 1986.06C798.251 1970.9 772.55 1964.72 759.522 1934.53C736.37 1880.86 832.59 1867.25 857.614 1819.06C882.637 1770.86 847.025 1721.67 800.56 1719.33C776.599 1718.12 749.521 1719.97 744.008 1742.23C737.712 1767.66 776.538 1780.88 800.56 1781.84C883.971 1771.5 1018.82 1770.73 1034.28 1675.43C1052.3 1564.35 818.452 1653.5 759.522 1556.14C688.226 1438.35 808.355 1123.9 871.627 1207.82C894.648 1238.36 834.592 1277.49 857.614 1309.46C930.892 1411.22 1105.87 1299.75 1137.87 1180.15C1158.65 1102.5 1077.82 1011.72 1077.82 983.087C1077.82 954.458 1118.86 931.077 1137.87 956.843C1156.89 982.61 1112.19 1020.33 1077.82 1045.12C977.847 1117.21 835.593 977.838 852.108 827.535C868.624 677.233 1101.94 688.508 1099.84 544.585C1098.19 431.847 941.692 367.254 941.692 298.375C941.692 275.757 950.808 252.125 980.728 254C1009.72 255.817 1009.09 273.404 1007.25 298.375C987.234 356.11 920.118 371.212 852.108 383.785C729.766 406.403 677.277 180.63 553 186.5C465.577 190.629 384.063 288.156 319 298.375C95.5 333.48 4.97822 137.893 3.5 127.605C2.02179 117.316 3.5 0.604736 3.5 0.604736" stroke="#DF2727" stroke-width="5" stroke-dasharray="10 10"/>
</svg>
